<svg width="1081" height="3124" viewBox="0 0 1081 3124" fill="none" xmlns="http://www.w3.org/2000/svg">
<rect width="46" height="3124" fill="#EBE7DC"/>
<rect x="83" width="46" height="3124" fill="#EBE7DC"/>
<rect x="166" width="46" height="3124" fill="#EBE7DC"/>
<rect x="249" width="46" height="3124" fill="#EBE7DC"/>
<rect x="332" width="46" height="3124" fill="#EBE7DC"/>
<rect x="415" width="46" height="3124" fill="#EBE7DC"/>
<rect x="498" width="46" height="3124" fill="#EBE7DC"/>
<rect x="581" width="46" height="3124" fill="#EBE7DC"/>
<rect x="664" width="46" height="3124" fill="#EBE7DC"/>
<rect x="747" width="46" height="3124" fill="#EBE7DC"/>
<rect x="830" width="46" height="3124" fill="#EBE7DC"/>
<rect x="924" width="46" height="3124" fill="#EBE7DC"/>
<circle cx="992" cy="1889" r="89" fill="#E2DECD"/>
<circle cx="992" cy="1593" r="89" fill="#E2DECD"/>
<circle cx="992" cy="1889" r="71" fill="#EBE7DC"/>
<circle cx="992" cy="1593" r="71" fill="#EBE7DC"/>
<circle cx="992" cy="2166" r="89" fill="#E2DECD"/>
<circle cx="992" cy="2166" r="71" fill="#EBE7DC"/>
<path d="M109.646 2434.75C125.535 2405.54 167.465 2405.54 183.354 2434.75C198.561 2462.7 178.324 2496.75 146.5 2496.75C114.676 2496.75 94.439 2462.7 109.646 2434.75Z" fill="#E2DECD"/>
<path d="M110.646 2621.75C126.535 2592.54 168.465 2592.54 184.354 2621.75C199.561 2649.7 179.324 2683.75 147.5 2683.75C115.676 2683.75 95.439 2649.7 110.646 2621.75Z" fill="#E2DECD"/>
<path d="M110.646 2812.75C126.535 2783.54 168.465 2783.54 184.354 2812.75C199.561 2840.7 179.324 2874.75 147.5 2874.75C115.676 2874.75 95.439 2840.7 110.646 2812.75Z" fill="#E2DECD"/>
</svg>
