<svg width="60" height="60" viewBox="0 0 60 60" fill="none" xmlns="http://www.w3.org/2000/svg">
<circle cx="30" cy="30" r="30" fill="black"/>
<circle cx="30" cy="30" r="27" fill="white"/>
<path d="M30 6C43.2548 6 54 16.7452 54 30C54 43.2548 43.2548 54 30 54C16.7452 54 6 43.2548 6 30C6 16.7452 16.7452 6 30 6ZM30.9561 15C26.2032 15 22.2178 18.1509 22.2178 24.4395C22.2178 28.9275 23.9791 31.3635 26.627 32.7139L21 45H24.7471L29.8574 33.5088H32.5449V45H35.7754V15H30.9561ZM32.5449 30.8213H30.8232C28.0166 30.8212 25.7002 29.2716 25.7002 24.4395C25.7002 19.4485 28.2285 17.7276 30.8232 17.7275H32.5449V30.8213Z" fill="black"/>
</svg>
