<svg width="60" height="60" viewBox="0 0 60 60" fill="none" xmlns="http://www.w3.org/2000/svg">
<circle cx="30" cy="30" r="30" fill="black"/>
<circle cx="30" cy="30" r="27" fill="white"/>
<path d="M30 6C43.2548 6 54 16.7452 54 30C54 43.2548 43.2548 54 30 54C16.7452 54 6 43.2548 6 30C6 16.7452 16.7452 6 30 6ZM41.9482 21.707C41.7732 20.2352 39.9884 20.5587 38.9951 20.8896C33.89 22.8322 28.8359 24.9186 23.8018 27.042C20.8756 28.3384 17.744 29.6285 14.9385 31.1738C13.5715 32.1747 15.8941 32.8367 17.4795 33.4932C19.2477 34.0365 21.3101 34.8683 23.0791 33.8945C26.5422 31.9052 29.7465 29.5028 33.0312 27.2393C33.6294 26.8565 35.4411 25.6093 34.8281 27.0898C32.5542 29.5765 30.0096 31.5857 27.6104 33.9502C26.769 34.6338 25.8951 36.0086 26.8369 36.9658C29.7128 38.9791 32.6484 40.9279 35.5615 42.8955C36.7737 43.8633 38.668 43.0807 38.9346 41.5684C39.7081 37.0282 40.5022 32.4888 41.1885 27.9336C41.4588 25.8622 41.8524 23.7906 41.9482 21.707Z" fill="black"/>
</svg>
