<svg width="60" height="60" viewBox="0 0 60 60" fill="none" xmlns="http://www.w3.org/2000/svg">
<circle cx="30" cy="30" r="30" fill="black"/>
<circle cx="30" cy="30" r="27" fill="white"/>
<path d="M30 6C42.5204 6 52.7994 15.5875 53.9004 27.8213V32.1777C52.8644 43.6946 43.6946 52.8644 32.1777 53.9004H27.8223C15.588 52.7999 6 42.5207 6 30C6 16.7452 16.7452 6 30 6ZM15.1475 21.1094C14.1315 21.1094 13.962 21.5838 13.9619 22.0918C13.9619 23.0064 15.1475 27.6136 19.4834 33.7109C22.3627 37.8775 26.462 40.1133 30.1543 40.1133C32.3897 40.1132 32.6611 39.6046 32.6611 38.7578V35.6074C32.6612 34.5916 32.864 34.4219 33.5752 34.4219C34.0833 34.4219 34.9982 34.693 37.0645 36.6914C39.4356 39.0626 39.842 40.1474 41.1631 40.1475H44.6523C45.6685 40.1474 46.1431 39.6386 45.8721 38.6562C45.5671 37.6739 44.4152 36.2512 42.9248 34.5576C42.1118 33.6091 40.8922 32.5589 40.5195 32.0508C40.0116 31.3735 40.1471 31.1027 40.5195 30.4932C40.4865 30.4919 44.754 24.4629 45.1943 22.4307C45.4314 21.6856 45.1942 21.1437 44.1445 21.1436H40.6553C39.7745 21.1436 39.368 21.6179 39.1309 22.126C39.1237 22.1432 37.3307 26.4675 34.8291 29.2734C34.0164 30.0862 33.6433 30.3572 33.2031 30.3574C32.966 30.3574 32.6611 30.0861 32.6611 29.3408V22.3965C32.6611 21.516 32.3896 21.1094 31.6445 21.1094H26.1572C25.6152 21.1094 25.2764 21.5164 25.2764 21.9229C25.2766 22.7695 26.5295 22.9729 26.665 25.3438V30.4932C26.665 31.6106 26.4617 31.8134 26.0215 31.8135C24.8359 31.8135 21.9561 27.4443 20.2285 22.4648C19.8898 21.4826 19.5514 21.1095 18.6709 21.1094H15.1475Z" fill="black"/>
</svg>
